<svg viewBox="0 0 37 37" xmlns="http://www.w3.org/2000/svg">
<path d="M20.2042 18.1218L30.7511 5.5499C30.9279 5.34097 30.7792 5.02356 30.506 5.02356H27.2998C27.1109 5.02356 26.9301 5.10793 26.8056 5.25258L18.1069 15.6227L9.40824 5.25258C9.28771 5.10793 9.1069 5.02356 8.91405 5.02356H5.7078C5.43458 5.02356 5.28592 5.34097 5.46271 5.5499L16.0096 18.1218L5.46271 30.6936C5.42311 30.7402 5.3977 30.7972 5.38951 30.8578C5.38131 30.9183 5.39067 30.98 5.41648 31.0354C5.44228 31.0908 5.48345 31.1377 5.53509 31.1704C5.58673 31.2031 5.64667 31.2203 5.7078 31.22H8.91405C9.10289 31.22 9.28369 31.1356 9.40824 30.991L18.1069 20.6209L26.8056 30.991C26.9261 31.1356 27.1069 31.22 27.2998 31.22H30.506C30.7792 31.22 30.9279 30.9026 30.7511 30.6936L20.2042 18.1218Z" />
</svg>
