<svg  viewBox="0 0 37 37"  xmlns="http://www.w3.org/2000/svg">
<path d="M34.0992 31.8897L23.6648 21.4553C25.284 19.362 26.1599 16.8027 26.1599 14.1107C26.1599 10.8884 24.9023 7.86695 22.6282 5.58883C20.3541 3.3107 17.3247 2.05713 14.1064 2.05713C10.8881 2.05713 7.8586 3.31472 5.58449 5.58883C3.30637 7.86293 2.0528 10.8884 2.0528 14.1107C2.0528 17.329 3.31038 20.3585 5.58449 22.6326C7.8586 24.9107 10.884 26.1643 14.1064 26.1643C16.7983 26.1643 19.3537 25.2884 21.447 23.6732L31.8814 34.1036C31.912 34.1342 31.9483 34.1585 31.9883 34.175C32.0283 34.1916 32.0711 34.2001 32.1144 34.2001C32.1577 34.2001 32.2005 34.1916 32.2405 34.175C32.2805 34.1585 32.3168 34.1342 32.3474 34.1036L34.0992 32.3558C34.1298 32.3252 34.1541 32.2889 34.1707 32.2489C34.1873 32.2089 34.1958 32.166 34.1958 32.1228C34.1958 32.0795 34.1873 32.0366 34.1707 31.9966C34.1541 31.9566 34.1298 31.9203 34.0992 31.8897V31.8897ZM20.4707 20.475C18.7671 22.1745 16.509 23.1107 14.1064 23.1107C11.7037 23.1107 9.44565 22.1745 7.74208 20.475C6.04253 18.7714 5.10637 16.5134 5.10637 14.1107C5.10637 11.708 6.04253 9.44597 7.74208 7.74641C9.44565 6.04686 11.7037 5.1107 14.1064 5.1107C16.509 5.1107 18.7711 6.04284 20.4707 7.74641C22.1702 9.44999 23.1064 11.708 23.1064 14.1107C23.1064 16.5134 22.1702 18.7754 20.4707 20.475Z" />
</svg>
